<?xml version="1.0" encoding="UTF-8"?>
<svg id="Layer_2" data-name="Layer 2" xmlns="http://www.w3.org/2000/svg" viewBox="0 0 399.17 80.13">
  <defs>
    <style>
      .cls-1 {
        fill: #2463eb;
      }

      .cls-2 {
        fill: #fff;
      }

      .cls-3 {
        opacity: .29;
      }
    </style>
  </defs>
  <g id="Layer_1-2" data-name="Layer 1">
    <g>
      <path class="cls-2" d="M153.94,18.22v49.56h-9.94v-32.23l-13.28,32.23h-7.53l-13.35-32.23v32.23h-9.94V18.22h11.29l15.76,36.85,15.76-36.85h11.22Z"/>
      <path class="cls-2" d="M200.02,51.1h-28.76c.24,2.84,1.23,5.07,2.98,6.67,1.75,1.61,3.9,2.41,6.46,2.41,3.69,0,6.32-1.59,7.88-4.76h10.72c-1.14,3.79-3.31,6.9-6.53,9.34-3.22,2.44-7.17,3.66-11.86,3.66-3.79,0-7.18-.84-10.19-2.52-3.01-1.68-5.35-4.06-7.03-7.13-1.68-3.08-2.52-6.63-2.52-10.65s.83-7.64,2.49-10.72c1.66-3.08,3.98-5.44,6.96-7.1,2.98-1.66,6.41-2.48,10.29-2.48s7.09.8,10.05,2.41c2.96,1.61,5.25,3.89,6.89,6.85,1.63,2.96,2.45,6.35,2.45,10.19,0,1.42-.1,2.7-.28,3.83ZM190.01,44.42c-.05-2.56-.97-4.6-2.77-6.14-1.8-1.54-4-2.31-6.6-2.31-2.46,0-4.53.75-6.21,2.24-1.68,1.49-2.71,3.56-3.09,6.21h18.67Z"/>
      <path class="cls-2" d="M207.37,37.39c1.59-3.08,3.75-5.44,6.5-7.1,2.75-1.66,5.8-2.48,9.16-2.48,2.55,0,4.99.56,7.31,1.67,2.32,1.11,4.16,2.59,5.54,4.44V15.24h10.08v52.54h-10.08v-5.82c-1.23,1.94-2.96,3.5-5.18,4.69-2.23,1.18-4.8,1.77-7.74,1.77-3.31,0-6.34-.85-9.09-2.56-2.74-1.7-4.91-4.11-6.5-7.21-1.59-3.1-2.38-6.66-2.38-10.69s.79-7.5,2.38-10.58ZM234.53,41.9c-.95-1.73-2.23-3.05-3.83-3.98-1.61-.92-3.34-1.38-5.18-1.38s-3.55.45-5.11,1.35c-1.56.9-2.83,2.21-3.8,3.94-.97,1.73-1.46,3.77-1.46,6.14s.48,4.44,1.46,6.21c.97,1.78,2.25,3.14,3.83,4.08,1.59.95,3.28,1.42,5.08,1.42s3.57-.46,5.18-1.38c1.61-.92,2.89-2.25,3.83-3.98.95-1.73,1.42-3.8,1.42-6.21s-.47-4.48-1.42-6.21Z"/>
      <path class="cls-2" d="M286.75,21.28c3.95,2.04,7,4.93,9.16,8.7,2.15,3.76,3.23,8.13,3.23,13.1s-1.08,9.31-3.23,13.03c-2.15,3.72-5.21,6.59-9.16,8.63-3.95,2.04-8.53,3.05-13.74,3.05h-17.32V18.22h17.32c5.21,0,9.79,1.02,13.74,3.05ZM284.72,55.07c2.84-2.84,4.26-6.84,4.26-12s-1.42-9.19-4.26-12.11c-2.84-2.91-6.86-4.37-12.07-4.37h-7.03v32.73h7.03c5.21,0,9.23-1.42,12.07-4.26Z"/>
      <path class="cls-2" d="M342.87,51.1h-28.75c.24,2.84,1.23,5.07,2.98,6.67,1.75,1.61,3.9,2.41,6.46,2.41,3.69,0,6.32-1.59,7.88-4.76h10.72c-1.14,3.79-3.31,6.9-6.53,9.34-3.22,2.44-7.17,3.66-11.86,3.66-3.79,0-7.18-.84-10.19-2.52-3.01-1.68-5.35-4.06-7.03-7.13-1.68-3.08-2.52-6.63-2.52-10.65s.83-7.64,2.49-10.72c1.66-3.08,3.98-5.44,6.96-7.1,2.98-1.66,6.41-2.48,10.29-2.48s7.09.8,10.05,2.41c2.96,1.61,5.25,3.89,6.89,6.85s2.45,6.35,2.45,10.19c0,1.42-.1,2.7-.28,3.83ZM332.86,44.42c-.05-2.56-.97-4.6-2.77-6.14-1.8-1.54-4-2.31-6.6-2.31-2.46,0-4.53.75-6.21,2.24-1.68,1.49-2.71,3.56-3.09,6.21h18.67Z"/>
      <path class="cls-2" d="M381,18.22v8.02h-20.66v12.71h15.83v7.88h-15.83v20.95h-9.94V18.22h30.6Z"/>
      <path class="cls-2" d="M388.7,22.09c-1.16-1.11-1.74-2.5-1.74-4.15s.58-3.04,1.74-4.15c1.16-1.11,2.62-1.67,4.37-1.67s3.21.56,4.37,1.67c1.16,1.11,1.74,2.5,1.74,4.15s-.58,3.04-1.74,4.15c-1.16,1.11-2.62,1.67-4.37,1.67s-3.21-.56-4.37-1.67ZM397.97,28.45v39.33h-9.94V28.45h9.94Z"/>
    </g>
    <path class="cls-2" d="M39.79,1.5c21.11,0,38.29,17.18,38.29,38.29s-17.18,38.29-38.29,38.29S1.5,60.91,1.5,39.79,18.68,1.5,39.79,1.5M34.26,34.42h-12.86c-3.04,0-5.51,2.47-5.51,5.51s2.47,5.51,5.51,5.51h12.86v12.49c0,3.04,2.47,5.51,5.51,5.51s5.51-2.47,5.51-5.51v-12.49h13.02c3.04,0,5.51-2.47,5.51-5.51s-2.47-5.51-5.51-5.51h-13.02v-13.39c0-3.04-2.47-5.51-5.51-5.51s-5.51,2.47-5.51,5.51v13.39M39.79.5C18.09.5.5,18.09.5,39.79s17.59,39.29,39.29,39.29,39.29-17.59,39.29-39.29S61.49.5,39.79.5h0ZM21.39,44.43c-2.49,0-4.51-2.02-4.51-4.51s2.02-4.51,4.51-4.51h13.86v-14.39c0-2.49,2.02-4.51,4.51-4.51s4.51,2.02,4.51,4.51v14.39h14.02c2.49,0,4.51,2.02,4.51,4.51s-2.02,4.51-4.51,4.51h-14.02v13.49c0,2.49-2.02,4.51-4.51,4.51s-4.51-2.02-4.51-4.51v-13.49h-13.86Z"/>
    <g class="cls-3">
      <path class="cls-2" d="M40.49,2.04c21.11,0,38.29,17.18,38.29,38.29s-17.18,38.29-38.29,38.29S2.2,61.45,2.2,40.33,19.38,2.04,40.49,2.04M34.96,34.96h-12.86c-3.04,0-5.51,2.47-5.51,5.51s2.47,5.51,5.51,5.51h12.86v12.49c0,3.04,2.47,5.51,5.51,5.51s5.51-2.47,5.51-5.51v-12.49h13.02c3.04,0,5.51-2.47,5.51-5.51s-2.47-5.51-5.51-5.51h-13.02v-13.39c0-3.04-2.47-5.51-5.51-5.51s-5.51,2.47-5.51,5.51v13.39M40.49,1.04C18.79,1.04,1.2,18.63,1.2,40.33s17.59,39.29,39.29,39.29,39.29-17.59,39.29-39.29S62.19,1.04,40.49,1.04h0ZM22.09,44.98c-2.49,0-4.51-2.02-4.51-4.51s2.02-4.51,4.51-4.51h13.86v-14.39c0-2.49,2.02-4.51,4.51-4.51s4.51,2.02,4.51,4.51v14.39h14.02c2.49,0,4.51,2.02,4.51,4.51s-2.02,4.51-4.51,4.51h-14.02v13.49c0,2.49-2.02,4.51-4.51,4.51s-4.51-2.02-4.51-4.51v-13.49h-13.86Z"/>
    </g>
    <g>
      <path class="cls-1" d="M40.35.94C18.65.94,1.06,18.53,1.06,40.23s17.59,39.29,39.29,39.29,39.29-17.59,39.29-39.29S62.05.94,40.35.94ZM58.84,44.87h-14.02v13.49c0,2.49-2.02,4.51-4.51,4.51s-4.51-2.02-4.51-4.51v-13.49h-13.86c-2.49,0-4.51-2.02-4.51-4.51s2.02-4.51,4.51-4.51h13.86v-14.39c0-2.49,2.02-4.51,4.51-4.51s4.51,2.02,4.51,4.51v14.39h14.02c2.49,0,4.51,2.02,4.51,4.51s-2.02,4.51-4.51,4.51Z"/>
      <path class="cls-2" d="M58.84,35.86h-14.02v-14.39c0-2.49-2.02-4.51-4.51-4.51s-4.51,2.02-4.51,4.51v14.39h-13.86c-2.49,0-4.51,2.02-4.51,4.51s2.02,4.51,4.51,4.51h13.86v13.49c0,2.49,2.02,4.51,4.51,4.51s4.51-2.02,4.51-4.51v-13.49h14.02c2.49,0,4.51-2.02,4.51-4.51s-2.02-4.51-4.51-4.51Z"/>
    </g>
  </g>
</svg>