<?xml version="1.0" encoding="UTF-8"?>
<svg id="Layer_2" data-name="Layer 2" xmlns="http://www.w3.org/2000/svg" viewBox="0 0 407.95 78.58">
  <defs>
    <style>
      .cls-1 {
        fill: none;
      }

      .cls-2 {
        fill: #2463eb;
      }

      .cls-3 {
        fill: #fff;
      }
    </style>
  </defs>
  <g id="Layer_1-2" data-name="Layer 1">
    <g>
      <path class="cls-1" d="M196.01,37.02c-1.8-1.54-4-2.31-6.6-2.31-2.46,0-4.53.75-6.21,2.24-1.68,1.49-2.71,3.56-3.09,6.21h18.67c-.05-2.56-.97-4.6-2.77-6.14Z"/>
      <path class="cls-1" d="M281.43,25.34h-7.03v32.73h7.03c5.21,0,9.23-1.42,12.07-4.26,2.84-2.84,4.26-6.84,4.26-12s-1.42-9.19-4.26-12.11c-2.84-2.91-6.86-4.37-12.07-4.37Z"/>
      <path class="cls-1" d="M338.86,37.02c-1.8-1.54-4-2.31-6.6-2.31-2.46,0-4.53.75-6.21,2.24-1.68,1.49-2.71,3.56-3.09,6.21h18.67c-.05-2.56-.97-4.6-2.77-6.14Z"/>
      <path class="cls-1" d="M239.47,36.66c-1.61-.92-3.34-1.38-5.18-1.38s-3.55.45-5.11,1.35c-1.56.9-2.83,2.21-3.8,3.94-.97,1.73-1.46,3.77-1.46,6.14s.48,4.44,1.46,6.21c.97,1.78,2.25,3.14,3.83,4.08,1.59.95,3.28,1.42,5.08,1.42s3.57-.46,5.18-1.38c1.61-.92,2.89-2.25,3.83-3.98.95-1.73,1.42-3.8,1.42-6.21s-.47-4.48-1.42-6.21c-.95-1.73-2.23-3.05-3.83-3.98Z"/>
      <polygon class="cls-2" points="135.74 53.81 119.97 16.96 108.68 16.96 108.68 66.52 118.62 66.52 118.62 34.28 131.97 66.52 139.5 66.52 152.78 34.28 152.78 66.52 162.72 66.52 162.72 16.96 151.5 16.96 135.74 53.81"/>
      <path class="cls-2" d="M199.74,28.96c-2.96-1.61-6.31-2.41-10.05-2.41s-7.31.83-10.29,2.48c-2.98,1.66-5.3,4.02-6.96,7.1-1.66,3.08-2.49,6.65-2.49,10.72s.84,7.57,2.52,10.65c1.68,3.08,4.02,5.46,7.03,7.13,3.01,1.68,6.4,2.52,10.19,2.52,4.69,0,8.64-1.22,11.86-3.66,3.22-2.44,5.4-5.55,6.53-9.34h-10.72c-1.56,3.17-4.19,4.76-7.88,4.76-2.56,0-4.71-.8-6.46-2.41-1.75-1.61-2.75-3.83-2.98-6.67h28.76c.19-1.14.28-2.41.28-3.83,0-3.83-.82-7.23-2.45-10.19-1.63-2.96-3.93-5.24-6.89-6.85ZM180.11,43.16c.38-2.65,1.41-4.72,3.09-6.21,1.68-1.49,3.75-2.24,6.21-2.24,2.6,0,4.8.77,6.6,2.31,1.8,1.54,2.72,3.59,2.77,6.14h-18.67Z"/>
      <path class="cls-2" d="M244.65,32.65c-1.37-1.85-3.22-3.32-5.54-4.44-2.32-1.11-4.76-1.67-7.31-1.67-3.36,0-6.41.83-9.16,2.48-2.74,1.66-4.91,4.02-6.5,7.1-1.59,3.08-2.38,6.6-2.38,10.58s.79,7.59,2.38,10.69c1.59,3.1,3.75,5.5,6.5,7.21,2.75,1.7,5.78,2.56,9.09,2.56,2.94,0,5.51-.59,7.74-1.77,2.22-1.18,3.95-2.75,5.18-4.69v5.82h10.08V13.98h-10.08v18.67ZM243.3,53.06c-.95,1.73-2.23,3.05-3.83,3.98-1.61.92-3.34,1.38-5.18,1.38s-3.49-.47-5.08-1.42c-1.59-.95-2.87-2.31-3.83-4.08-.97-1.77-1.46-3.84-1.46-6.21s.48-4.41,1.46-6.14c.97-1.73,2.24-3.04,3.8-3.94,1.56-.9,3.27-1.35,5.11-1.35s3.57.46,5.18,1.38c1.61.92,2.89,2.25,3.83,3.98.95,1.73,1.42,3.8,1.42,6.21s-.47,4.49-1.42,6.21Z"/>
      <path class="cls-2" d="M295.52,20.01c-3.95-2.04-8.53-3.05-13.74-3.05h-17.32v49.56h17.32c5.21,0,9.79-1.02,13.74-3.05,3.95-2.04,7-4.91,9.16-8.63,2.15-3.71,3.23-8.06,3.23-13.03s-1.08-9.34-3.23-13.1c-2.15-3.76-5.21-6.66-9.16-8.7ZM293.5,53.81c-2.84,2.84-6.86,4.26-12.07,4.26h-7.03V25.34h7.03c5.21,0,9.23,1.46,12.07,4.37,2.84,2.91,4.26,6.95,4.26,12.11s-1.42,9.16-4.26,12Z"/>
      <path class="cls-2" d="M342.59,28.96c-2.96-1.61-6.31-2.41-10.05-2.41s-7.31.83-10.29,2.48c-2.98,1.66-5.3,4.02-6.96,7.1-1.66,3.08-2.49,6.65-2.49,10.72s.84,7.57,2.52,10.65c1.68,3.08,4.02,5.46,7.03,7.13,3,1.68,6.4,2.52,10.19,2.52,4.69,0,8.64-1.22,11.86-3.66,3.22-2.44,5.4-5.55,6.53-9.34h-10.72c-1.56,3.17-4.19,4.76-7.88,4.76-2.56,0-4.71-.8-6.46-2.41-1.75-1.61-2.75-3.83-2.98-6.67h28.75c.19-1.14.28-2.41.28-3.83,0-3.83-.82-7.23-2.45-10.19s-3.93-5.24-6.89-6.85ZM322.96,43.16c.38-2.65,1.41-4.72,3.09-6.21,1.68-1.49,3.75-2.24,6.21-2.24,2.6,0,4.8.77,6.6,2.31,1.8,1.54,2.72,3.59,2.77,6.14h-18.67Z"/>
      <polygon class="cls-2" points="359.17 66.52 369.11 66.52 369.11 45.57 384.94 45.57 384.94 37.69 369.11 37.69 369.11 24.98 389.77 24.98 389.77 16.96 359.17 16.96 359.17 66.52"/>
      <path class="cls-2" d="M401.84,22.5c1.75,0,3.21-.56,4.37-1.67,1.16-1.11,1.74-2.5,1.74-4.15s-.58-3.04-1.74-4.15c-1.16-1.11-2.62-1.67-4.37-1.67s-3.21.56-4.37,1.67c-1.16,1.11-1.74,2.5-1.74,4.15s.58,3.04,1.74,4.15c1.16,1.11,2.62,1.67,4.37,1.67Z"/>
      <rect class="cls-2" x="396.8" y="27.18" width="9.94" height="39.33"/>
      <path class="cls-2" d="M39.29,0C17.59,0,0,17.59,0,39.29s17.59,39.29,39.29,39.29,39.29-17.59,39.29-39.29S60.99,0,39.29,0ZM57.78,43.93h-14.02v13.49c0,2.49-2.02,4.51-4.51,4.51s-4.51-2.02-4.51-4.51v-13.49h-13.86c-2.49,0-4.51-2.02-4.51-4.51s2.02-4.51,4.51-4.51h13.86v-14.39c0-2.49,2.02-4.51,4.51-4.51s4.51,2.02,4.51,4.51v14.39h14.02c2.49,0,4.51,2.02,4.51,4.51s-2.02,4.51-4.51,4.51Z"/>
      <path class="cls-3" d="M57.78,34.92h-14.02v-14.39c0-2.49-2.02-4.51-4.51-4.51s-4.51,2.02-4.51,4.51v14.39h-13.86c-2.49,0-4.51,2.02-4.51,4.51s2.02,4.51,4.51,4.51h13.86v13.49c0,2.49,2.02,4.51,4.51,4.51s4.51-2.02,4.51-4.51v-13.49h14.02c2.49,0,4.51-2.02,4.51-4.51s-2.02-4.51-4.51-4.51Z"/>
    </g>
  </g>
</svg>