<?xml version="1.0" encoding="UTF-8"?>
<svg id="Layer_2" data-name="Layer 2" xmlns="http://www.w3.org/2000/svg" viewBox="0 0 186.75 186.75">
  <defs>
    <style>
      .cls-1 {
        fill: #2463eb;
      }

      .cls-2 {
        fill: #fff;
      }
    </style>
  </defs>
  <g id="Layer_1-2" data-name="Layer 1">
    <g>
      <path class="cls-1" d="M93.37,0C41.8,0,0,41.8,0,93.37s41.8,93.37,93.37,93.37,93.37-41.8,93.37-93.37S144.94,0,93.37,0ZM137.32,104.41h-33.31v32.05c0,5.91-4.79,10.71-10.71,10.71s-10.71-4.79-10.71-10.71v-32.05h-32.95c-5.91,0-10.71-4.79-10.71-10.71s4.79-10.71,10.71-10.71h32.95v-34.21c0-5.91,4.79-10.71,10.71-10.71s10.71,4.79,10.71,10.71v34.21h33.31c5.91,0,10.71,4.79,10.71,10.71s-4.79,10.71-10.71,10.71Z"/>
      <path class="cls-2" d="M137.32,82.99h-33.31v-34.21c0-5.91-4.79-10.71-10.71-10.71s-10.71,4.79-10.71,10.71v34.21h-32.95c-5.91,0-10.71,4.79-10.71,10.71s4.79,10.71,10.71,10.71h32.95v32.05c0,5.91,4.79,10.71,10.71,10.71s10.71-4.79,10.71-10.71v-32.05h33.31c5.91,0,10.71-4.79,10.71-10.71s-4.79-10.71-10.71-10.71Z"/>
    </g>
  </g>
</svg>